{"title":"Bride of Chucky 1998 DVDrip English Klam","uid":6706820,"size":1577262948,"categoryP":"video","categoryS":"movies","magnet":"?xt=urn:btih:5d31db8514ee9ea6e58654c663dca7f73c79eeb9&amp;dn=Bride+of+Chucky+1998+DVDrip+English+Klam&amp;tr=udp%3A%2F%2Ftracker.openbittorrent.com%3A80&amp;tr=udp%3A%2F%2Fopen.demonii.com%3A1337&amp;tr=udp%3A%2F%2Ftracker.coppersurfer.tk%3A6969&amp;tr=udp%3A%2F%2Fexodus.desync.com%3A6969","seeders":0,"leechers":1,"uploader":"Klambake","files":-1,"time":1317203771,"description":"With: Katherine Heigl, Jennifer Tilly and the voice of Brad Dourif\n\nTiffany was de vriendin van Charles Lee Ray en besluit op een dag om de pop Chucky met de ziel van haar liefje opnieuw leven in te blazen. Maar als ze dan hoort dat Chucky nooit van plan was om met haar te trouwen, wordt ze boos en sluit hem op. Chucky ontsnapt en gebruikt voodoo- praktijken om ook Tiffany haar ziel in een pop te krijgen. Om allebei weer terug te keren als mens moeten de twee poppen naar het graf van Chucky om de ketting die Ray bij zich droeg toen hij stierf op te graven. Ze besluiten om stiekem mee te reizen met een jong paar dat op de vlucht is. En onderweg kunnen ze het niet laten om af en toe een aantal mensen om zeep te helpen.\n\nChucky hooks up with another murderous doll, the bridal gown-clad Tiffany, for a Route 66 murder spree with their unwitting hosts, two eloping high-school graduates. \n\n------------------ Dutch Friends ------------------\nYou can find my Friends at: http://www.Film-Test.nl \n------ They got my dutch subs ----- and more ------\n\nGeneral:\n\nComplete name                    : Child's Play 4\\Bride of Chucky.avi\nFormat                           : AVI\nFormat/Info                      : Audio Video Interleave\nFile size                        : 1.47 GiB\nDuration                         : 1h 25mn\nOverall bit rate                 : 2 473 Kbps\n\nVideo:\n\nFormat                           : MPEG-4 Visual\nFormat profile                   : Simple@L3\nFormat settings, BVOP            : No\nFormat settings, QPel            : No\nFormat settings, GMC             : No warppoints\nFormat settings, Matrix          : Default (H.263)\nCodec ID                         : XVID\nCodec ID/Hint                    : XviD\nDuration                         : 1h 25mn\nBit rate                         : 2 014 Kbps\nWidth                            : 652 pixels\nHeight                           : 352 pixels\nDisplay aspect ratio             : 1.852\nFrame rate                       : 25.000 fps\nColor space                      : YUV\nChroma subsampling               : 4:2:0\nBit depth                        : 8 bits\nScan type                        : Progressive\nBits/(Pixel*Frame)               : 0.351\nStream size                      : 1.20 GiB (81%)\nWriting library                  : XviD 1.1.2 (UTC 2006-11-01)\n\nAudio:\n\nFormat                           : AC-3\nFormat/Info                      : Audio Coding 3\nMode extension                   : CM (complete main)\nCodec ID                         : 2000\nDuration                         : 1h 25mn\nBit rate mode                    : Constant\nBit rate                         : 448 Kbps\nChannel(s)                       : 6 channels\nChannel positions                : Front: L C R, Side: L R, LFE\nSampling rate                    : 48.0 KHz\nBit depth                        : 16 bits\nStream size                      : 272 MiB (18%)\nAlignment                        : Aligned on interleaves\nInterleave, duration             : 32 ms (0.80 video frame)\nInterleave, preload duration     : 32 ms\n\n","torrent":{"xt":"urn:btih:5d31db8514ee9ea6e58654c663dca7f73c79eeb9","amp;dn":"Bride+of+Chucky+1998+DVDrip+English+Klam","amp;tr":["udp%3A%2F%2Ftracker.openbittorrent.com%3A80","udp%3A%2F%2Fopen.demonii.com%3A1337","udp%3A%2F%2Ftracker.coppersurfer.tk%3A6969","udp%3A%2F%2Fexodus.desync.com%3A6969"],"infoHash":"5d31db8514ee9ea6e58654c663dca7f73c79eeb9","infoHashBuffer":{"type":"Buffer","data":[93,49,219,133,20,238,158,166,229,134,84,198,99,220,167,247,60,121,238,185]},"announce":[],"urlList":[]}}